<?xml version="1.0" encoding="UTF-8"?>
<!DOCTYPE svg PUBLIC "-//W3C//DTD SVG 1.1//EN" "http://www.w3.org/Graphics/SVG/1.1/DTD/svg11.dtd">
<svg xmlns="http://www.w3.org/2000/svg" version="1.1" width="2052px" height="635px" style="shape-rendering:geometricPrecision; text-rendering:geometricPrecision; image-rendering:optimizeQuality; fill-rule:evenodd; clip-rule:evenodd" xmlns:xlink="http://www.w3.org/1999/xlink">
<g><path style="opacity:0.996" fill="#01adb5" d="M 323.5,-0.5 C 331.167,-0.5 338.833,-0.5 346.5,-0.5C 429.722,5.25636 491.055,44.7564 530.5,118C 568.211,114.929 603.544,122.596 636.5,141C 674.861,166.838 698.361,202.671 707,248.5C 727.752,370.2 677.919,444.033 557.5,470C 541.211,472.137 524.878,473.637 508.5,474.5C 507.676,450.239 507.176,425.906 507,401.5C 505.169,380.177 500.502,359.51 493,339.5C 489.721,330.276 485.388,321.609 480,313.5C 479.48,311.711 479.813,310.044 481,308.5C 497.583,289.193 514.75,270.36 532.5,252C 546.655,241.167 562.655,234.834 580.5,233C 606.121,231.007 631.787,230.007 657.5,230C 670.783,223.493 674.616,213.326 669,199.5C 665.525,194.374 660.691,191.208 654.5,190C 626.457,189.001 598.457,189.667 570.5,192C 547.106,193.901 526.439,202.235 508.5,217C 488.048,237.127 468.881,258.294 451,280.5C 432.658,266.388 411.825,259.888 388.5,261C 385.68,231.951 381.18,203.118 375,174.5C 369.235,155.794 359.068,139.961 344.5,127C 320.219,106.196 294.219,87.8627 266.5,72C 248,70.5 239.5,79 241,97.5C 242.455,100.912 244.288,104.079 246.5,107C 272.032,122.521 295.865,140.354 318,160.5C 328.988,172.811 335.988,187.144 339,203.5C 342.717,226.071 345.383,248.738 347,271.5C 312.812,289.014 284.812,313.68 263,345.5C 257.656,353.53 252.323,361.53 247,369.5C 239.833,367.333 232.667,365.167 225.5,363C 205.307,347.973 184.974,333.14 164.5,318.5C 163.667,282.505 163.167,246.505 163,210.5C 155.78,191.639 142.28,184.472 122.5,189C 111.601,193.616 105.101,201.782 103,213.5C 102.333,254.5 102.333,295.5 103,336.5C 104.107,344.883 107.941,351.716 114.5,357C 140.969,375.651 166.969,394.818 192.5,414.5C 186.651,434.038 180.651,453.372 174.5,472.5C 129.582,474.134 89.2484,461.634 53.5,435C 21.8354,406.505 3.83536,371.005 -0.5,328.5C -0.5,318.833 -0.5,309.167 -0.5,299.5C 2.52518,270.595 12.0252,243.928 28,219.5C 44.6563,199.416 65.1563,184.582 89.5,175C 102.728,170.148 115.894,165.315 129,160.5C 158.475,63.8392 223.308,10.1726 323.5,-0.5 Z"/></g>
<g><path style="opacity:0.998" fill="#fefefe" d="M 508.5,474.5 C 508.5,475.833 508.5,477.167 508.5,478.5C 396.83,477.866 285.164,476.866 173.5,475.5C 174.127,474.583 174.461,473.583 174.5,472.5C 180.651,453.372 186.651,434.038 192.5,414.5C 166.969,394.818 140.969,375.651 114.5,357C 107.941,351.716 104.107,344.883 103,336.5C 102.333,295.5 102.333,254.5 103,213.5C 105.101,201.782 111.601,193.616 122.5,189C 142.28,184.472 155.78,191.639 163,210.5C 163.167,246.505 163.667,282.505 164.5,318.5C 184.974,333.14 205.307,347.973 225.5,363C 232.667,365.167 239.833,367.333 247,369.5C 252.323,361.53 257.656,353.53 263,345.5C 284.812,313.68 312.812,289.014 347,271.5C 345.383,248.738 342.717,226.071 339,203.5C 335.988,187.144 328.988,172.811 318,160.5C 295.865,140.354 272.032,122.521 246.5,107C 244.288,104.079 242.455,100.912 241,97.5C 239.5,79 248,70.5 266.5,72C 294.219,87.8627 320.219,106.196 344.5,127C 359.068,139.961 369.235,155.794 375,174.5C 381.18,203.118 385.68,231.951 388.5,261C 411.825,259.888 432.658,266.388 451,280.5C 468.881,258.294 488.048,237.127 508.5,217C 526.439,202.235 547.106,193.901 570.5,192C 598.457,189.667 626.457,189.001 654.5,190C 660.691,191.208 665.525,194.374 669,199.5C 674.616,213.326 670.783,223.493 657.5,230C 631.787,230.007 606.121,231.007 580.5,233C 562.655,234.834 546.655,241.167 532.5,252C 514.75,270.36 497.583,289.193 481,308.5C 479.813,310.044 479.48,311.711 480,313.5C 485.388,321.609 489.721,330.276 493,339.5C 500.502,359.51 505.169,380.177 507,401.5C 507.176,425.906 507.676,450.239 508.5,474.5 Z"/></g>
<g><path style="opacity:0.989" fill="#00adb4" d="M 795.5,119.5 C 821.5,119.5 847.5,119.5 873.5,119.5C 873.333,153.502 873.5,187.502 874,221.5C 915.554,203.389 957.387,202.889 999.5,220C 1064.8,253.108 1089.97,305.608 1075,377.5C 1056.69,428.138 1021.19,459.304 968.5,471C 911.37,480.957 863.204,464.79 824,422.5C 808.69,403.871 799.356,382.537 796,358.5C 795.5,278.834 795.333,199.167 795.5,119.5 Z M 930.5,278.5 C 961.874,277.762 984.374,291.429 998,319.5C 1007.41,355.274 995.575,381.441 962.5,398C 923.668,409.83 895.168,397.663 877,361.5C 867.848,324.97 880.348,298.804 914.5,283C 919.874,281.16 925.207,279.66 930.5,278.5 Z"/></g>
<g><path style="opacity:0.985" fill="#00adb4" d="M 1224.5,206.5 C 1252.37,205.551 1278.7,211.384 1303.5,224C 1310.72,227.888 1317.39,232.555 1323.5,238C 1310.17,256 1296.83,274 1283.5,292C 1282.5,292.667 1281.5,292.667 1280.5,292C 1258.32,275.359 1233.99,271.359 1207.5,280C 1175.06,295.728 1163.22,321.228 1172,356.5C 1181.57,386.64 1202.24,402.64 1234,404.5C 1252.48,404.083 1268.81,398.083 1283,386.5C 1296.99,403.802 1310.99,421.135 1325,438.5C 1324.91,441.642 1323.41,444.142 1320.5,446C 1298.46,460.793 1274.13,469.459 1247.5,472C 1198.41,476.975 1156.58,462.142 1122,427.5C 1091.65,389.745 1083.32,347.412 1097,300.5C 1112.89,252.609 1145.39,222.775 1194.5,211C 1204.56,208.874 1214.56,207.374 1224.5,206.5 Z"/></g>
<g><path style="opacity:0.987" fill="#00adb4" d="M 1443.5,206.5 C 1490.29,204.995 1529.79,220.995 1562,254.5C 1591.98,290.771 1600.98,331.771 1589,377.5C 1572.54,423.296 1541.04,453.463 1494.5,468C 1434.4,483.272 1382.9,468.772 1340,424.5C 1311.01,388.566 1302.35,348.233 1314,303.5C 1326.5,264.679 1351.33,236.845 1388.5,220C 1406.23,212.493 1424.56,207.993 1443.5,206.5 Z M 1440.5,278.5 C 1473.73,276.024 1497.56,289.69 1512,319.5C 1521.04,356.592 1508.2,383.092 1473.5,399C 1441.01,408.282 1415.17,399.115 1396,371.5C 1379.92,337.636 1387.09,309.803 1417.5,288C 1424.82,283.664 1432.49,280.497 1440.5,278.5 Z"/></g>
<g><path style="opacity:0.988" fill="#00adb4" d="M 1703.5,207.5 C 1735.16,205.165 1764.16,212.665 1790.5,230C 1812.65,250.138 1824.15,275.305 1825,305.5C 1825.5,358.832 1825.67,412.166 1825.5,465.5C 1799.17,465.5 1772.83,465.5 1746.5,465.5C 1746.67,412.499 1746.5,359.499 1746,306.5C 1741.53,283.174 1727.7,274.341 1704.5,280C 1694.18,284.42 1688.02,292.253 1686,303.5C 1684.53,357.467 1684.03,411.467 1684.5,465.5C 1658.5,465.5 1632.5,465.5 1606.5,465.5C 1606.33,409.832 1606.5,354.166 1607,298.5C 1610.55,255.969 1632.39,227.803 1672.5,214C 1682.85,211.232 1693.18,209.065 1703.5,207.5 Z"/></g>
<g><path style="opacity:0.985" fill="#00adb4" d="M 1929.5,207.5 C 1968,204.887 2001.34,216.554 2029.5,242.5C 2015.5,257.167 2001.17,271.5 1986.5,285.5C 1969.06,272.246 1949.73,268.412 1928.5,274C 1919.94,278.337 1917.78,284.837 1922,293.5C 1924.59,296.762 1927.76,299.262 1931.5,301C 1953.13,307.157 1974.79,313.157 1996.5,319C 2026.8,331.923 2040.8,354.923 2038.5,388C 2038.67,422.335 2023.33,447.002 1992.5,462C 1968.24,472.82 1942.91,476.486 1916.5,473C 1885.93,470.368 1859.26,459.034 1836.5,439C 1848.96,421.216 1862.13,404.049 1876,387.5C 1899.01,408.545 1925.51,414.712 1955.5,406C 1964.25,401.671 1967.42,394.837 1965,385.5C 1960.35,380.087 1954.51,376.587 1947.5,375C 1928.66,370.624 1910,365.624 1891.5,360C 1860.4,347.159 1845.73,323.825 1847.5,290C 1847.14,255.702 1862.48,231.369 1893.5,217C 1905.22,212.252 1917.22,209.085 1929.5,207.5 Z"/></g>
<g><path style="opacity:1" fill="#09adb5" d="M 341.5,314.5 C 363.442,315.429 373.609,326.762 372,348.5C 366.742,364.725 355.575,371.558 338.5,369C 320.298,361.423 314.465,348.256 321,329.5C 325.903,321.653 332.736,316.653 341.5,314.5 Z"/></g>
<g><path style="opacity:1" fill="#0baeb6" d="M 437.5,344.5 C 453.834,343.079 464.667,350.079 470,365.5C 472.274,382.796 465.107,393.962 448.5,399C 426.875,399.709 416.042,389.209 416,367.5C 418.936,355.735 426.103,348.068 437.5,344.5 Z"/></g>
<g><path style="opacity:1" fill="#0daeb6" d="M 324.5,388.5 C 329.412,388.063 334.078,388.896 338.5,391C 359.644,418.914 386.811,427.081 420,415.5C 433.798,418.432 438.132,426.432 433,439.5C 431.062,442.106 428.562,443.939 425.5,445C 381.785,457.869 345.618,446.702 317,411.5C 312.643,401.556 315.143,393.889 324.5,388.5 Z"/></g>
<g><path style="opacity:0.932" fill="#00adb4" d="M 1480.5,528.5 C 1485.55,529.007 1490.55,529.84 1495.5,531C 1496.02,531.561 1496.36,532.228 1496.5,533C 1495.59,535.791 1494.93,538.624 1494.5,541.5C 1489.53,540.578 1484.53,540.412 1479.5,541C 1477.25,542.995 1476.25,545.495 1476.5,548.5C 1481.5,548.5 1486.5,548.5 1491.5,548.5C 1491.5,552.167 1491.5,555.833 1491.5,559.5C 1486.5,559.5 1481.5,559.5 1476.5,559.5C 1476.5,570.833 1476.5,582.167 1476.5,593.5C 1471.83,593.5 1467.17,593.5 1462.5,593.5C 1462.5,582.167 1462.5,570.833 1462.5,559.5C 1458.5,559.5 1454.5,559.5 1450.5,559.5C 1450.5,555.833 1450.5,552.167 1450.5,548.5C 1454.5,548.5 1458.5,548.5 1462.5,548.5C 1462.59,536.417 1468.59,529.75 1480.5,528.5 Z"/></g>
<g><path style="opacity:0.937" fill="#00adb4" d="M 1069.5,530.5 C 1078.83,530.5 1088.17,530.5 1097.5,530.5C 1097.33,546.503 1097.5,562.503 1098,578.5C 1098.78,580.286 1099.95,581.786 1101.5,583C 1105.19,583.45 1108.85,583.283 1112.5,582.5C 1112.93,585.376 1113.59,588.209 1114.5,591C 1114.36,591.772 1114.02,592.439 1113.5,593C 1106.15,594.957 1098.82,594.957 1091.5,593C 1086.9,590.075 1084.4,585.909 1084,580.5C 1083.5,567.504 1083.33,554.504 1083.5,541.5C 1078.83,541.5 1074.17,541.5 1069.5,541.5C 1069.5,537.833 1069.5,534.167 1069.5,530.5 Z"/></g>
<g><path style="opacity:0.937" fill="#00adb4" d="M 1231.5,530.5 C 1240.83,530.5 1250.17,530.5 1259.5,530.5C 1259.33,546.503 1259.5,562.503 1260,578.5C 1260.78,580.286 1261.95,581.786 1263.5,583C 1267.19,583.45 1270.85,583.283 1274.5,582.5C 1274.93,585.376 1275.59,588.209 1276.5,591C 1276.36,591.772 1276.02,592.439 1275.5,593C 1268.15,594.957 1260.82,594.957 1253.5,593C 1248.9,590.075 1246.4,585.909 1246,580.5C 1245.5,567.504 1245.33,554.504 1245.5,541.5C 1240.83,541.5 1236.17,541.5 1231.5,541.5C 1231.5,537.833 1231.5,534.167 1231.5,530.5 Z"/></g>
<g><path style="opacity:0.934" fill="#00adb4" d="M 1666.5,530.5 C 1671.17,530.5 1675.83,530.5 1680.5,530.5C 1680.33,537.508 1680.5,544.508 1681,551.5C 1687.81,546.804 1694.98,546.304 1702.5,550C 1710.03,557.671 1712.53,566.838 1710,577.5C 1706.94,590.612 1698.77,596.112 1685.5,594C 1682.9,593.117 1680.73,591.617 1679,589.5C 1678.69,590.766 1678.19,591.933 1677.5,593C 1673.85,593.499 1670.18,593.665 1666.5,593.5C 1666.5,572.5 1666.5,551.5 1666.5,530.5 Z M 1688.5,558.5 C 1694.11,560.352 1696.78,564.352 1696.5,570.5C 1696.97,577.346 1693.97,581.68 1687.5,583.5C 1684.99,583.167 1682.82,582.167 1681,580.5C 1680.33,574.5 1680.33,568.5 1681,562.5C 1683.26,560.501 1685.76,559.168 1688.5,558.5 Z"/></g>
<g><path style="opacity:0.931" fill="#00adb4" d="M 1828.5,530.5 C 1833.17,530.5 1837.83,530.5 1842.5,530.5C 1842.33,542.171 1842.5,553.838 1843,565.5C 1848.53,560.302 1853.7,554.802 1858.5,549C 1863.83,548.333 1869.17,548.333 1874.5,549C 1868.6,554.809 1862.94,560.809 1857.5,567C 1863.5,575.667 1869.5,584.333 1875.5,593C 1870.14,593.829 1864.8,593.663 1859.5,592.5C 1856.25,586.996 1852.75,581.662 1849,576.5C 1842.99,580.591 1840.82,586.258 1842.5,593.5C 1837.83,593.5 1833.17,593.5 1828.5,593.5C 1828.5,572.5 1828.5,551.5 1828.5,530.5 Z"/></g>
<g><path style="opacity:0.936" fill="#00adb4" d="M 2018.5,530.5 C 2023.17,530.5 2027.83,530.5 2032.5,530.5C 2032.5,551.5 2032.5,572.5 2032.5,593.5C 2028.5,593.5 2024.5,593.5 2020.5,593.5C 2020.66,592.127 2020.49,590.793 2020,589.5C 2012.24,595.604 2004.07,596.104 1995.5,591C 1990.34,585.554 1988.01,579.054 1988.5,571.5C 1988.19,557.729 1994.69,549.729 2008,547.5C 2011.54,547.404 2014.71,548.404 2017.5,550.5C 2018.5,543.866 2018.83,537.2 2018.5,530.5 Z M 2010.5,558.5 C 2017.93,559.088 2020.59,563.088 2018.5,570.5C 2020.42,577.6 2017.92,581.934 2011,583.5C 2008.59,583.297 2006.59,582.297 2005,580.5C 2001.76,574.483 2001.76,568.483 2005,562.5C 2006.5,560.531 2008.33,559.198 2010.5,558.5 Z"/></g>
<g><path style="opacity:0.921" fill="#00adb4" d="M 820.5,547.5 C 826.245,547.211 831.912,547.711 837.5,549C 840.362,549.93 842.695,551.597 844.5,554C 842.333,556.833 840.167,559.667 838,562.5C 828.747,556.149 821.414,557.816 816,567.5C 814.683,576.878 818.683,582.211 828,583.5C 832.05,583.151 835.717,581.817 839,579.5C 841.521,582.032 843.688,584.866 845.5,588C 837.527,594.158 828.527,596.158 818.5,594C 804.331,589.173 798.831,579.34 802,564.5C 805.19,555.472 811.356,549.806 820.5,547.5 Z"/></g>
<g><path style="opacity:0.933" fill="#00adb4" d="M 870.5,547.5 C 891.806,546.306 901.306,556.306 899,577.5C 894.21,591.652 884.377,597.152 869.5,594C 861.261,591.427 856.095,585.927 854,577.5C 851.489,562.839 856.989,552.839 870.5,547.5 Z M 874.5,558.5 C 882.078,559.418 885.745,563.752 885.5,571.5C 884.781,582.768 879.614,585.768 870,580.5C 865.641,571.791 867.141,564.457 874.5,558.5 Z"/></g>
<g><path style="opacity:0.936" fill="#00adb4" d="M 932.5,547.5 C 940.676,545.827 946.843,548.494 951,555.5C 952.42,568.106 952.92,580.772 952.5,593.5C 947.833,593.5 943.167,593.5 938.5,593.5C 938.666,583.494 938.5,573.494 938,563.5C 937.135,560.797 935.301,559.464 932.5,559.5C 929.219,559.891 926.385,561.224 924,563.5C 923.5,573.494 923.334,583.494 923.5,593.5C 918.833,593.5 914.167,593.5 909.5,593.5C 909.5,578.5 909.5,563.5 909.5,548.5C 913.5,548.5 917.5,548.5 921.5,548.5C 921.215,550.288 921.548,551.955 922.5,553.5C 925.598,550.957 928.931,548.957 932.5,547.5 Z"/></g>
<g><path style="opacity:0.917" fill="#00adb4" d="M 978.5,547.5 C 988.403,546.082 997.403,548.249 1005.5,554C 1003.33,556.833 1001.17,559.667 999,562.5C 993.244,558.614 987.077,557.448 980.5,559C 977.937,561.526 978.603,563.193 982.5,564C 987.604,564.954 992.604,566.287 997.5,568C 1005.23,570.959 1008.06,576.459 1006,584.5C 1003.99,588.593 1000.83,591.427 996.5,593C 984.121,596.221 972.454,594.554 961.5,588C 963.312,584.866 965.479,582.032 968,579.5C 974.729,583.179 981.896,584.679 989.5,584C 992.346,583.121 993.013,581.454 991.5,579C 985.89,577.18 980.223,575.514 974.5,574C 963.008,568.045 961.674,560.378 970.5,551C 973.158,549.522 975.825,548.355 978.5,547.5 Z"/></g>
<g><path style="opacity:0.933" fill="#00adb4" d="M 1032.5,547.5 C 1053.81,546.306 1063.31,556.306 1061,577.5C 1056.21,591.652 1046.38,597.152 1031.5,594C 1023.26,591.427 1018.09,585.927 1016,577.5C 1013.49,562.839 1018.99,552.839 1032.5,547.5 Z M 1036.5,558.5 C 1044.08,559.418 1047.75,563.752 1047.5,571.5C 1046.78,582.768 1041.61,585.768 1032,580.5C 1027.64,571.791 1029.14,564.457 1036.5,558.5 Z"/></g>
<g><path style="opacity:0.914" fill="#00adb4" d="M 1141.5,547.5 C 1162.08,545.747 1171.08,555.08 1168.5,575.5C 1158.48,575.168 1148.48,575.501 1138.5,576.5C 1140.92,581.797 1145.08,584.463 1151,584.5C 1155.27,583.915 1159.27,582.582 1163,580.5C 1164.37,583.412 1165.87,586.246 1167.5,589C 1164.68,591.613 1161.34,593.279 1157.5,594C 1133.64,597.47 1122.81,587.304 1125,563.5C 1127.75,555.247 1133.25,549.913 1141.5,547.5 Z M 1144.5,558.5 C 1150.18,557.339 1154.18,559.339 1156.5,564.5C 1150.53,565.664 1144.53,565.83 1138.5,565C 1140.03,562.31 1142.03,560.143 1144.5,558.5 Z"/></g>
<g><path style="opacity:0.933" fill="#00adb4" d="M 1302.5,547.5 C 1323.81,546.306 1333.31,556.306 1331,577.5C 1326.21,591.652 1316.38,597.152 1301.5,594C 1293.26,591.427 1288.09,585.927 1286,577.5C 1283.49,562.839 1288.99,552.839 1302.5,547.5 Z M 1306.5,558.5 C 1314.08,559.418 1317.75,563.752 1317.5,571.5C 1316.78,582.768 1311.61,585.768 1302,580.5C 1297.64,571.791 1299.14,564.457 1306.5,558.5 Z"/></g>
<g><path style="opacity:0.919" fill="#00adb4" d="M 1355.5,547.5 C 1366.16,548.099 1376.82,548.433 1387.5,548.5C 1387.5,551.833 1387.5,555.167 1387.5,558.5C 1384.48,558.335 1381.48,558.502 1378.5,559C 1381.94,568.798 1378.6,575.465 1368.5,579C 1363.83,579.333 1359.17,579.667 1354.5,580C 1353.07,581.714 1353.41,583.047 1355.5,584C 1364.64,583.953 1373.64,584.953 1382.5,587C 1389.79,595.356 1388.79,602.69 1379.5,609C 1369.05,612.789 1358.38,613.456 1347.5,611C 1340.49,608.287 1338.32,603.454 1341,596.5C 1342.54,594.622 1344.38,593.122 1346.5,592C 1341.27,586.609 1341.27,581.109 1346.5,575.5C 1340.49,568.591 1339.99,561.258 1345,553.5C 1348.07,550.554 1351.57,548.554 1355.5,547.5 Z M 1357.5,557.5 C 1363.36,555.955 1366.7,558.121 1367.5,564C 1366.69,570.04 1363.35,572.04 1357.5,570C 1353.61,565.843 1353.61,561.677 1357.5,557.5 Z M 1353.5,595.5 C 1359.51,595.334 1365.51,595.501 1371.5,596C 1374.47,599.702 1373.47,602.035 1368.5,603C 1364.17,603.667 1359.83,603.667 1355.5,603C 1351.22,601.328 1350.55,598.828 1353.5,595.5 Z"/></g>
<g><path style="opacity:0.933" fill="#00adb4" d="M 1518.5,547.5 C 1539.81,546.306 1549.31,556.306 1547,577.5C 1542.21,591.652 1532.38,597.152 1517.5,594C 1509.26,591.427 1504.09,585.927 1502,577.5C 1499.49,562.839 1504.99,552.839 1518.5,547.5 Z M 1522.5,558.5 C 1530.08,559.418 1533.75,563.752 1533.5,571.5C 1532.78,582.768 1527.61,585.768 1518,580.5C 1513.64,571.791 1515.14,564.457 1522.5,558.5 Z"/></g>
<g><path style="opacity:0.926" fill="#00adb4" d="M 1586.5,547.5 C 1590.51,547.334 1594.51,547.501 1598.5,548C 1599.67,548.419 1600.67,549.085 1601.5,550C 1600.33,553.818 1599.17,557.652 1598,561.5C 1589.51,557.994 1582.51,559.994 1577,567.5C 1575.56,576.058 1575.06,584.724 1575.5,593.5C 1570.83,593.5 1566.17,593.5 1561.5,593.5C 1561.5,578.5 1561.5,563.5 1561.5,548.5C 1565.5,548.5 1569.5,548.5 1573.5,548.5C 1573.19,551.247 1573.52,553.914 1574.5,556.5C 1577.95,552.709 1581.95,549.709 1586.5,547.5 Z"/></g>
<g><path style="opacity:0.918" fill="#00adb4" d="M 1735.5,547.5 C 1740.18,547.334 1744.85,547.501 1749.5,548C 1758.49,550.78 1762.99,556.947 1763,566.5C 1763.5,575.494 1763.67,584.494 1763.5,593.5C 1759.45,593.824 1755.45,593.491 1751.5,592.5C 1751,591.5 1750.5,590.5 1750,589.5C 1743.54,594.181 1736.38,595.681 1728.5,594C 1720.31,589.781 1717.81,583.281 1721,574.5C 1723.64,570.872 1727.14,568.372 1731.5,567C 1737.17,565.833 1742.84,564.666 1748.5,563.5C 1746.53,560.161 1743.53,558.495 1739.5,558.5C 1735.17,559.331 1731.01,560.664 1727,562.5C 1724.32,560.338 1722.49,557.504 1721.5,554C 1721.83,553.5 1722.17,553 1722.5,552.5C 1726.87,550.606 1731.2,548.939 1735.5,547.5 Z M 1741.5,573.5 C 1744.17,573.5 1746.83,573.5 1749.5,573.5C 1749.89,580.339 1746.56,583.672 1739.5,583.5C 1736.38,584.056 1734.38,582.889 1733.5,580C 1733.44,578.289 1734.11,576.956 1735.5,576C 1737.61,575.155 1739.61,574.322 1741.5,573.5 Z"/></g>
<g><path style="opacity:0.921" fill="#00adb4" d="M 1793.5,547.5 C 1799.24,547.211 1804.91,547.711 1810.5,549C 1813.36,549.93 1815.69,551.597 1817.5,554C 1815.33,556.833 1813.17,559.667 1811,562.5C 1801.75,556.149 1794.41,557.816 1789,567.5C 1787.68,576.878 1791.68,582.211 1801,583.5C 1805.05,583.151 1808.72,581.817 1812,579.5C 1814.52,582.032 1816.69,584.866 1818.5,588C 1810.53,594.158 1801.53,596.158 1791.5,594C 1777.33,589.173 1771.83,579.34 1775,564.5C 1778.19,555.472 1784.36,549.806 1793.5,547.5 Z"/></g>
<g><path style="opacity:0.914" fill="#00adb4" d="M 1898.5,547.5 C 1919.08,545.747 1928.08,555.08 1925.5,575.5C 1915.48,575.168 1905.48,575.501 1895.5,576.5C 1897.92,581.797 1902.08,584.463 1908,584.5C 1912.27,583.915 1916.27,582.582 1920,580.5C 1921.37,583.412 1922.87,586.246 1924.5,589C 1921.68,591.613 1918.34,593.279 1914.5,594C 1890.64,597.47 1879.81,587.304 1882,563.5C 1884.75,555.247 1890.25,549.913 1898.5,547.5 Z M 1901.5,558.5 C 1907.18,557.339 1911.18,559.339 1913.5,564.5C 1907.53,565.664 1901.53,565.83 1895.5,565C 1897.03,562.31 1899.03,560.143 1901.5,558.5 Z"/></g>
<g><path style="opacity:0.936" fill="#00adb4" d="M 1959.5,547.5 C 1967.68,545.827 1973.84,548.494 1978,555.5C 1979.42,568.106 1979.92,580.772 1979.5,593.5C 1974.83,593.5 1970.17,593.5 1965.5,593.5C 1965.67,583.494 1965.5,573.494 1965,563.5C 1964.13,560.797 1962.3,559.464 1959.5,559.5C 1956.22,559.891 1953.39,561.224 1951,563.5C 1950.5,573.494 1950.33,583.494 1950.5,593.5C 1945.83,593.5 1941.17,593.5 1936.5,593.5C 1936.5,578.5 1936.5,563.5 1936.5,548.5C 1940.5,548.5 1944.5,548.5 1948.5,548.5C 1948.21,550.288 1948.55,551.955 1949.5,553.5C 1952.6,550.957 1955.93,548.957 1959.5,547.5 Z"/></g>
<g><path style="opacity:0.913" fill="#00adb4" d="M 1195.5,573.5 C 1204.8,571.3 1210.13,574.8 1211.5,584C 1210.13,593.363 1204.8,596.696 1195.5,594C 1190.51,590.843 1188.68,586.343 1190,580.5C 1190.97,577.379 1192.8,575.046 1195.5,573.5 Z"/></g>
</svg>
