<svg id="Logo_tipo_3" data-name="Logo tipo 3" xmlns="http://www.w3.org/2000/svg" viewBox="0 0 170.74 114.67"><defs><style>.cls-1{fill:#00adb5;}.cls-1,.cls-2{fill-rule:evenodd;}.cls-2{fill:#fff;}</style></defs><path class="cls-1" d="M118.36,51.07C135.19,54,147.2,63.91,155.22,78.78l1.51-.15a41.64,41.64,0,0,1,18.73,3C187,86.31,194,95.72,197,107.52a52.65,52.65,0,0,1-.26,27.77c-4.16,13.67-14,20.78-27,25.23l-.14,0a83.65,83.65,0,0,1-8.19,2.31c-13.1,2.31-83.06,1.24-98.77.19l-.8-.09a46.91,46.91,0,0,1-7.85-1.72c-11.78-3.67-20.18-11.68-24-23.51a40.27,40.27,0,0,1,.12-25c2.23-6.82,5.44-11.45,9.88-15,5.26-4.15,12.55-6.9,19.08-8.74C66.52,61.84,90.48,46.2,118.36,51.07Z" transform="translate(-27.94 -50.19)"/><path class="cls-2" d="M184.3,95.69c-29.12-.3-30.82,1.7-44,17q-1.87,2.19-4.11,4.76a22.28,22.28,0,0,0-15.14-4.6c-.29-2.25-.54-4.33-.77-6.25-2.39-20-2.7-22.6-27-38.57a4.93,4.93,0,1,0-5.41,8.24c20.49,13.45,20.74,15.53,22.65,31.51.27,2.22.56,4.68.94,7.52-8.89,3.94-17.47,12.3-24,23.57-3-.9-5.35-1.64-5.35-1.64l-15-10.86.06-24a7.25,7.25,0,0,0-14.5-.08s-.06,27.7,0,27.7a7.22,7.22,0,0,0,3,5.89l18.71,13.58c-.67,1.93-2.8,8.9-4.53,14.82l79.4.59.69-.06-.2-7c.85-13-1.62-24.73-6.82-33,1.89-2.14,3.51-4,5-5.72,10.49-12.21,11.85-13.8,36.37-13.56a4.93,4.93,0,0,0,.09-9.86Zm-79.72,34.68a6.58,6.58,0,1,1,4.38,8.21A6.59,6.59,0,0,1,104.58,130.37ZM129.93,157a22.71,22.71,0,0,1-25.61-7.79,3.59,3.59,0,1,1,5.54-4.57c4.91,5.94,10.63,7.68,18,5.47a3.6,3.6,0,1,1,2.06,6.89Zm10.7-15.65a6.58,6.58,0,1,1-4.39-8.22A6.59,6.59,0,0,1,140.63,141.33Z" transform="translate(-27.94 -50.19)"/></svg>